<?xml version="1.0" encoding="UTF-8"?>
<svg width="68px" height="68px" viewBox="0 0 68 68" version="1.1" xmlns="http://www.w3.org/2000/svg" xmlns:xlink="http://www.w3.org/1999/xlink">
    <!-- Generator: Sketch 52.5 (67469) - http://www.bohemiancoding.com/sketch -->
    <title>right</title>
    <desc>Created with Sketch.</desc>
    <g id="Page-1" stroke="none" stroke-width="1" fill="none" fill-rule="evenodd">
        <g id="在线业务咨询-提交成功" transform="translate(-686.000000, -221.000000)" fill="#52C41A">
            <g id="right" transform="translate(686.000000, 221.000000)">
                <path d="M47.9192847,48.2941477 L26.1488343,26.3417917 L20.4718986,36.3322855 C19.8137995,37.4883761 18.3580045,37.8893324 17.2079929,37.2277545 C16.0579813,36.5661767 15.6591334,35.1026863 16.3172325,33.9465957 L23.5496752,21.216234 C23.988408,20.4410519 24.7993988,20 25.630332,20 C26.0358274,20 26.4413228,20.1002391 26.8135809,20.3140824 C27.0262998,20.4410519 27.2190763,20.5880692 27.3786155,20.7618169 C27.385263,20.7684995 27.3985579,20.7818647 27.4052054,20.7885473 L51.3028448,44.8860194 C52.23349,45.8282666 52.23349,47.3519004 51.2961973,48.2874651 C50.3655521,49.2363949 48.8565774,49.2363949 47.9192847,48.2941477 L47.9192847,48.2941477 Z M34,68 C15.2203125,68 0,52.7796875 0,34 C0,15.2203125 15.2203125,0 34,0 C52.7796875,0 68,15.2203125 68,34 C68,52.7796875 52.7796875,68 34,68 L34,68 Z M54.5043182,13.4956818 C51.8415909,10.8329545 48.7372727,8.73704545 45.2836364,7.28045455 C41.7113636,5.76454545 37.915,5 34,5 C30.085,5 26.2886364,5.76454545 22.7163636,7.27386364 C19.2627273,8.73704545 16.165,10.8263636 13.4956818,13.4890909 C10.8329545,16.1518182 8.73704545,19.2561364 7.28045455,22.7097727 C5.76454545,26.2886364 5,30.085 5,34 C5,37.915 5.76454545,41.7113636 7.27386364,45.2836364 C8.73704545,48.7372727 10.8263636,51.835 13.4890909,54.5043182 C16.1518182,57.1670455 19.2561364,59.2629545 22.7097727,60.7195455 C26.2886364,62.2354545 30.085,63 34,63 C37.915,63 41.7113636,62.2354545 45.2836364,60.7261364 C48.7372727,59.2629545 51.835,57.1736364 54.5043182,54.5109091 C57.1670455,51.8481818 59.2629545,48.7438636 60.7195455,45.2902273 C62.2354545,41.7113636 63,37.915 63,34 C63,30.085 62.2354545,26.2886364 60.7261364,22.7163636 C59.2629545,19.2627273 57.1736364,16.1584091 54.5043182,13.4956818 L54.5043182,13.4956818 Z" id="Shape-Copy-3" transform="translate(34.000000, 34.000000) scale(1, -1) translate(-34.000000, -34.000000) "></path>
            </g>
        </g>
    </g>
</svg>